<?xml version="1.0" encoding="UTF-8"?><svg id="Layer_1" xmlns="http://www.w3.org/2000/svg" xmlns:xlink="http://www.w3.org/1999/xlink" viewBox="0 0 700 300"><defs><style>.cls-1{fill:none;}.cls-2{fill:#fff;}.cls-3{clip-path:url(#clippath);}.cls-4{fill:#243746;}</style><clipPath id="clippath"><rect class="cls-1" x="182.869" y="3.652" width="334.263" height="293.801"/></clipPath></defs><path class="cls-4" d="M509.561,91.411L357.57,5.516c-4.168-2.486-10.972-2.486-15.139,0l-151.994,85.894c-4.161,2.497-7.568,8.492-7.568,13.349v125.549c0,4.852,3.799,9.952,8.448,11.339l150.234,54.754c4.649,1.401,12.247,1.401,16.892,0l150.24-54.754c4.643-1.387,8.448-6.487,8.448-11.339v-125.549c-.002-4.853-3.417-10.852-7.57-13.349h0Z"/><path class="cls-2" d="M382.869,82.598c.28-.167.791-.403,1.18-.403.396,0,.672.167.672.614,0,1.746-7.401,9.655-10.6,9.659-.28,0-.897-.058-1.344-.73,2.582-3.145,6.337-6.569,10.092-9.14h0ZM391.086,59.706c-5.045-4.038-5.214-3.376-5.937-3.376-1.13,0-26.589,1.586-52.724,1.586-11.101,0-19.808-1.04-25.6,1.456-14.546,6.279-16.882,25.429-4.802,25.02,12.721-.44,19.297-6.794,23.57-13.482,1.327-2.081.542-2.844-.689-1.31-3.179,3.939-8.482,8.468-14.294,10.549-13.748,4.932-8.758-15.484.74-18.113,7.544-2.091,20.129,1.535,32.008,3.615,0,0-.897.628-1.351.962-1.009.784-5.945,5.102-14.525,13.393-5.106,4.945-15.259,14.699-15.259,18.236,0,1.286,3.871,7.964,6.118,7.964.842,0,.28-1.801,4.659-7.452,7.35-9.543,18.669-20.596,23.158-24.958,3.823-3.704,8.922-7.855,10.661-7.855,1.432,0,3.435-.054,5.706-.153-8.939,8.028-23.557,21.52-30.538,31.725-.334.501-.505,1.006-.505,1.286,0,2.067,3.704,5.044,4.768,5.044.617,0,1.572-2.237,2.022-2.742,7.8-9.532,12.735-13.738,17.107-15.596-3.806,3.762-8.131,7.912-8.131,11.446,0,2.797,1.634,6.722,4.823,6.722,2.633,0,8.325-4.127,11.736-7.268.297,2.37,5.348,7.783,7.742,7.783,5.494,0,11.04-3.936,15.137-7.684,2.301-2.08,4.538-4.662,4.538-5.28,0-.211-.05-.559-.491-.559-.517,0-5.899,4.99-16.155,8.758-.686.212-1.91.56-2.919.56-1.733,0-2.193-1.184-2.193-2.081,0-1.006.624-2.415,1.688-4.038,1.231,1.3,2.916,1.971,4.096,1.971,4.202,0,13.454-7.629,13.454-13.021,0-.72-.169-1.678-2.178-3.527-1.415-1.576-2.977-2.752-4.154-2.752-2.138,0-5.563,1.79-10.044,5.829-2.285,2.06-4.485,4.284-6.088,6.688-.573.873-2.524,3.636-4.413,5.092-3.25,2.52-6.729,4.822-7.848,4.822-.399,0-.733-.211-.733-.781,0-2.865,8.581-9.587,11.272-11.892.955-.839,1.183-1.119,1.183-1.791,0-2.305-3.254-4.096-4.996-4.096-2.923,0-5.048,1.34-8.697,3.131,1.426-1.801,6.749-5.569,14.375-12.82,2.377-2.247,5.324-4.597,9.215-5.682,5.106-.368,10.269-.808,14.372-1.286,1.456-.171,3.813-.672,3.813-1.344,0-.907-1.969-2.081-2.698-2.698h0Z"/><path class="cls-2" d="M365.019,187.134h11.507c2.131,0,2.94.147,3.373.583.662.737.818,1.842.818,4.485s-.157,3.752-.818,4.475c-.437.44-1.242.593-3.373.593h-11.507v-10.136h0ZM311.04,200.872l3.796-11.903h3.598l3.694,11.903h-11.088ZM433.508,187.281c3.316,0,4.56.218,5.297.952.809.818,1.099,2.943,1.099,13.301,0,10.279-.29,12.473-1.099,13.291-.733.723-1.977.948-5.297.948h-11.967l-.139-28.492h12.106ZM370.605,215.772h-5.583v-7.933h8.629l11.387,19.388h50.911c7.411,0,11.383-.958,14.468-4.049,3.511-3.511,5.357-8.804,5.357-21.639s-1.846-18.144-5.357-21.671c-3.084-3.09-7.057-4.042-14.468-4.042h-35.034v11.456h5.43v28.492h-10.35l-7.787-13.213c5.947-1.173,8.369-3.39,8.369-12.483,0-6.402-.727-9.256-3.004-11.538-1.985-1.981-4.854-2.718-9.249-2.718h-39.784v11.456h5.429v28.492h-7.646l-13.564-40.169h-23.12l-13.618,40.169h-5.87v11.452h25.617v-11.23h-4.7l1.177-4.405h16.674l1.248,4.405h-4.7v11.23h49.139v-11.452h0Z"/><path class="cls-2" d="M379.432,155.133c-.45.45-1.177.593-3.38.593h-7.408c-2.2,0-2.926-.143-3.377-.593-.518-.512-.887-2.057-.887-13.366,0-11.231.372-12.844.887-13.359.45-.433,1.173-.59,3.377-.59h7.408c2.2,0,2.93.157,3.38.59.515.515.883,2.128.883,13.359s-.372,12.851-.883,13.366h0ZM381.925,116.072h-19.157c-5.354,0-7.558.805-9.536,2.797-3.025,2.933-4.703,8.728-4.703,22.902s1.678,19.982,4.703,22.912c1.975,1.992,4.181,2.793,9.536,2.793h19.157c5.354,0,7.568-.801,9.54-2.793,3.024-2.93,4.707-8.734,4.707-22.912s-1.683-19.972-4.707-22.902c-1.971-1.992-4.186-2.797-9.54-2.797h0Z"/><polygon class="cls-2" points="291.839 187.281 297.053 187.281 297.053 175.825 271.348 175.825 271.348 187.134 275.83 187.134 269.728 195.954 269.435 195.954 263.787 187.134 268.262 187.134 268.262 175.825 241.578 175.825 241.578 187.281 246.673 187.281 261.584 207.778 261.584 215.776 255.782 215.776 255.782 227.228 282.439 227.228 282.439 215.772 276.635 215.772 276.635 207.554 291.839 187.281 291.839 187.281"/><polygon class="cls-2" points="286.15 156.02 272.31 156.02 272.31 127.525 286.15 127.525 286.15 116.069 241.574 116.069 241.574 127.525 255.424 127.525 255.424 156.02 241.574 156.02 241.574 167.472 286.15 167.472 286.15 156.02 286.15 156.02"/><polygon class="cls-2" points="434.477 127.518 439.542 127.518 439.542 142.354 422.455 116.065 399.087 116.065 399.087 127.521 404.517 127.521 404.517 156.016 399.087 156.016 399.087 167.469 423.601 167.469 423.53 156.016 418.104 156.016 418.104 138.176 436.206 167.472 453.116 167.472 453.116 127.525 458.419 127.525 458.423 127.525 458.423 116.062 434.477 116.062 434.477 127.518 434.477 127.518"/><path class="cls-2" d="M310.774,127.382h11.497c2.131,0,2.943.143,3.38.593.658.727.808,1.821.808,4.475,0,2.64-.15,3.748-.808,4.475-.436.447-1.245.59-3.376.593h-11.5v-10.136h0ZM319.403,148.087l11.374,19.385h15.876v-11.453h-4.915l-7.783-13.223c5.944-1.177,8.366-3.366,8.366-12.486,0-6.388-.727-9.253-3.012-11.534-1.978-1.968-4.846-2.708-9.249-2.708h-39.774v11.456h5.426v28.495h-5.426v11.453h26.063v-11.453h-5.576v-7.933h8.629Z"/><polygon class="cls-4" points="314.836 188.969 311.04 200.872 322.128 200.872 318.434 188.969 314.836 188.969 314.836 188.969"/><path class="cls-4" d="M325.651,136.924c.658-.727.808-1.835.808-4.475,0-2.654-.15-3.748-.808-4.475-.436-.45-1.248-.593-3.38-.593h-11.497v10.136h11.5c2.131-.003,2.94-.147,3.376-.593h0Z"/><path class="cls-4" d="M374.121,92.468c3.199-.003,10.6-7.913,10.6-9.659,0-.447-.276-.614-.672-.614-.389,0-.9.235-1.18.403-3.755,2.571-7.51,5.996-10.092,9.14.447.672,1.064.73,1.344.73h0Z"/><path class="cls-4" d="M376.052,127.818h-7.408c-2.203,0-2.926.157-3.377.59-.515.515-.887,2.128-.887,13.359,0,11.309.368,12.854.887,13.366.45.45,1.177.593,3.377.593h7.408c2.203,0,2.93-.143,3.38-.593.512-.515.883-2.128.883-13.366s-.368-12.844-.883-13.359c-.45-.433-1.18-.59-3.38-.59h0Z"/><path class="cls-4" d="M379.899,196.677c.662-.723.818-1.832.818-4.475s-.157-3.748-.818-4.485c-.433-.437-1.242-.583-3.373-.583h-11.507v10.136h11.507c2.131,0,2.936-.154,3.373-.593h0Z"/><g class="cls-3"><path class="cls-4" d="M433.508,215.772c3.32,0,4.564-.225,5.297-.948.809-.817,1.099-3.012,1.099-13.291,0-10.358-.29-12.483-1.099-13.301-.737-.733-1.981-.952-5.297-.952h-12.106l.139,28.492h11.967Z"/><path class="cls-4" d="M458.423,127.525h-5.307v39.948h-16.91l-18.102-29.296v17.84h5.426l.07,11.453h-24.514v-11.453h5.43v-28.495h-5.43v-11.456h23.369l17.087,26.289v-14.836h-5.065v-11.456h23.946v11.463h0ZM241.574,156.02h13.85v-28.495h-13.85v-11.456h44.576v11.456h-13.84v28.495h13.84v11.453h-44.576v-11.453h0ZM282.439,215.772v11.456h-26.657v-11.452h5.801v-7.999l-14.911-20.497h-5.095v-11.456h26.684v11.309h-4.475l5.648,8.82h.293l6.101-8.82h-4.481v-11.309h25.705v11.456h-5.215l-15.204,20.273v8.218h5.805ZM316.35,156.02v11.453h-26.063v-11.453h5.426v-28.495h-5.426v-11.456h39.774c4.403,0,7.271.74,9.249,2.708,2.285,2.282,3.012,5.147,3.012,11.534,0,9.12-2.422,11.309-8.366,12.486l7.783,13.223h4.915v11.453h-15.876l-11.374-19.385h-8.629v7.933h5.576ZM396.171,141.771c0,14.178-1.683,19.982-4.707,22.912-1.971,1.992-4.186,2.793-9.54,2.793h-19.157c-5.354,0-7.561-.801-9.536-2.793-3.025-2.93-4.703-8.734-4.703-22.912s1.678-19.969,4.703-22.902c1.978-1.992,4.181-2.797,9.536-2.797h19.157c5.354,0,7.568.805,9.54,2.797,3.024,2.93,4.707,8.724,4.707,22.902h0ZM389.97,63.748c-4.103.477-9.266.918-14.372,1.286-3.891,1.085-6.838,3.435-9.215,5.682-7.626,7.251-12.95,11.019-14.375,12.82,3.649-1.79,5.774-3.131,8.697-3.131,1.743,0,4.996,1.79,4.996,4.096,0,.672-.229.952-1.183,1.791-2.691,2.305-11.272,9.028-11.272,11.892,0,.57.334.781.733.781,1.119,0,4.597-2.302,7.848-4.822,1.89-1.456,3.84-4.219,4.413-5.092,1.603-2.405,3.803-4.628,6.088-6.688,4.481-4.038,7.906-5.829,10.044-5.829,1.177,0,2.739,1.177,4.154,2.752,2.009,1.849,2.178,2.807,2.178,3.527,0,5.392-9.252,13.021-13.454,13.021-1.18,0-2.865-.672-4.096-1.971-1.064,1.624-1.688,3.032-1.688,4.038,0,.897.46,2.081,2.193,2.081,1.01,0,2.234-.348,2.919-.56,10.256-3.768,15.638-8.758,16.155-8.758.441,0,.491.348.491.559,0,.617-2.237,3.199-4.538,5.28-4.097,3.748-9.642,7.684-15.137,7.684-2.394,0-7.445-5.413-7.742-7.783-3.411,3.141-9.103,7.268-11.736,7.268-3.189,0-4.823-3.926-4.823-6.722,0-3.533,4.325-7.684,8.131-11.446-4.373,1.859-9.307,6.064-17.107,15.596-.45.505-1.405,2.742-2.022,2.742-1.064,0-4.768-2.978-4.768-5.044,0-.28.171-.784.505-1.286,6.981-10.204,21.599-23.696,30.538-31.725-2.271.099-4.273.153-5.706.153-1.739,0-6.838,4.151-10.661,7.855-4.488,4.362-15.808,15.416-23.158,24.958-4.379,5.651-3.816,7.452-4.659,7.452-2.247,0-6.118-6.678-6.118-7.964,0-3.537,10.153-13.291,15.259-18.236,8.581-8.291,13.516-12.609,14.525-13.393.454-.334,1.351-.962,1.351-.962-11.879-2.08-24.464-5.706-32.008-3.615-9.498,2.63-14.488,23.045-.74,18.113,5.812-2.08,11.115-6.61,14.294-10.549,1.231-1.535,2.016-.771.689,1.31-4.273,6.688-10.849,13.042-23.57,13.482-12.08.409-9.744-18.741,4.802-25.02,5.791-2.496,14.498-1.456,25.6-1.456,26.135,0,51.595-1.586,52.724-1.586.723,0,.892-.662,5.937,3.376.729.617,2.698,1.791,2.698,2.698,0,.672-2.358,1.173-3.813,1.344h0ZM344.535,227.224h-23.069v-11.23h4.7l-1.248-4.405h-16.674l-1.177,4.405h4.7v11.23h-25.617v-11.452h5.87l13.618-40.169h23.12l13.564,40.169h7.646v-28.492h-5.429v-11.456h39.784c4.395,0,7.264.737,9.249,2.718,2.277,2.282,3.004,5.136,3.004,11.538,0,9.093-2.422,11.309-8.369,12.483l7.787,13.213h10.35v-28.492h-5.43v-11.456h35.034c7.411,0,11.383.952,14.468,4.042,3.511,3.527,5.357,8.816,5.357,21.671s-1.846,18.128-5.357,21.639c-3.084,3.09-7.057,4.049-14.468,4.049h-50.911l-11.387-19.388h-8.629v7.933h5.583v11.452h-26.07ZM509.561,91.411L357.57,5.516c-4.168-2.486-10.972-2.486-15.139,0l-151.994,85.894c-4.161,2.497-7.568,8.492-7.568,13.349v125.549c0,4.852,3.799,9.952,8.448,11.339l150.234,54.754c4.649,1.401,12.247,1.401,16.892,0l150.24-54.754c4.643-1.387,8.448-6.487,8.448-11.339v-125.549c-.002-4.853-3.417-10.852-7.57-13.349h0Z"/></g></svg>